<?xml version="1.0" encoding="utf-8"?>
<!-- Generator: Adobe Illustrator 28.3.0, SVG Export Plug-In . SVG Version: 6.00 Build 0)  -->
<svg version="1.1" id="Layer_2_00000047761426960172610570000016922449378071085743_"
	 xmlns="http://www.w3.org/2000/svg" xmlns:xlink="http://www.w3.org/1999/xlink" x="0px" y="0px" viewBox="0 0 507.2 168.6"
	 style="enable-background:new 0 0 507.2 168.6;" xml:space="preserve">
<style type="text/css">
	.st0{fill:#FFFFFF;}
	.st1{enable-background:new    ;}
	.st2{font-family:'Garamond';}
	.st3{font-size:72px;}
	.st4{letter-spacing:7;}
	.st5{letter-spacing:4;}
</style>
<g id="Layer_1-2">
	<g>
		<path class="st0" d="M155.6,144.8c0,0-49-21-44-78s62-66,62-66s56.5-10.5,81.5,44.5l-23,23c0,0-4-32-37-39c0,0-45-7-55,39
			c0,0-6,43,39,53L155.6,144.8z"/>
		<path class="st0" d="M12.6,64.8h25.1c0,0-0.1-26,21.9-26s20.5,22.5,20.5,22.5s1,10-6,19s-17,21-17,21l-52,53v14.3h106.1v-28.2
			H56.1c0,0,43-40.1,47-56.1c0,0,3-5.7,4.9-14.1c5.8-26.3-10.8-52.3-37.1-58.2c-2-0.4-4-0.7-5.7-0.7L12.6,64.8L12.6,64.8L12.6,64.8z
			"/>
		<g class="st1">
			<text transform="matrix(1 0 0 1 166.31 108.94)" class="st0 st2 st3 st4">Euro</text>
			<text transform="matrix(1 0 0 1 338.37 108.94)" class="st0 st2 st3 st5">F</text>
			<text transform="matrix(1 0 0 1 383.33 108.94)" class="st0 st2 st3 st4">ood</text>
		</g>
		
			<rect x="144.6" y="133.6" transform="matrix(0.7059 -0.7083 0.7083 0.7059 -45.7601 157.399)" class="st0" width="44" height="0.5"/>
		
			<rect x="221.4" y="56.4" transform="matrix(0.7059 -0.7083 0.7083 0.7059 31.4987 189.0879)" class="st0" width="44" height="0.5"/>
		
			<rect x="-14.9" y="39.8" transform="matrix(0.7059 -0.7083 0.7083 0.7059 -17.6374 37.9062)" class="st0" width="103.5" height="0.8"/>
	</g>
</g>
</svg>
